<svg version="1.2" xmlns="http://www.w3.org/2000/svg" viewBox="0 0 458 109">
	<style>
		.s0 { fill: #ffffff } 
		.s1 { opacity: .5;fill: #715776e8 } 
		.s2 { opacity: .4;fill: #ffffff } 
		.s3 { opacity: .3;fill: #715776e8 } 
	</style>
	<g id="Cloud 00000076605850461356084270000003388441976624625825  copy">
		<path id="Cloud 00000040553409514767056750000008283246941574927268 " class="s0" d="m161.8 14.8c8.9-9.8 23.1-14.8 36.6-14.8 20.6 0.1 30.4 4 55.7 25.3 11.1-12.7 34.5-15 50.6-9.8 16.2 5.1 29.7 16.3 41.4 28.6 11.3-8.8 27-11.9 40.9-8.2 13.9 3.8 25.8 14.4 31.2 27.8 10.3-0.9 36.6-0.9 38.9 12.7 1.2 7.4-5.8 13.4-11.9 15.9-3.9 1.6-31.3 8.3-45.6-2.5-6.6 12.4-29.2 16.5-39.9 16.7-9.4 0.2-17-1.3-25.7-4.2-2.2-0.8-28.2-11.9-27.1-12.8-33.4 25.8-74.5 19.4-109.4 1.1-26.1 23.6-71.6 24.4-95.6-2.2-6 6.1-22.6 8.1-36 4.9-8.8-2.2-10.9-6.1-10.9-6.1-4.6 2.4-10.2 3.9-16 5.3-8.9 2-31.4 4.3-37.6-5.1-8.4-12.8 23-24.4 30.9-16.9 9.2-18.3 32-30 50.3-20.7 4.6-11.5 16.2-20.4 27.9-24.4 11.8-3.9 31.6 1.4 42.2 7.8 1.1-7 4.4-13.3 9.1-18.4z"/>
		<path id="Cloud 00000003103955021355082320000007609647814447571355 " class="s1" d="m161.8 14.8c8.9-9.8 23.1-14.8 36.6-14.8 20.6 0.1 30.4 4 55.7 25.3 11.1-12.7 34.5-15 50.6-9.8 16.2 5.1 29.7 16.3 41.4 28.6 11.3-8.8 27-11.9 40.9-8.2 13.9 3.8 25.8 14.4 31.2 27.8 10.3-0.9 36.6-0.9 38.9 12.7 1.2 7.4-5.8 13.4-11.9 15.9-3.9 1.6-31.3 8.3-45.6-2.5-6.6 12.4-29.2 16.5-39.9 16.7-9.4 0.2-17-1.3-25.7-4.2-2.2-0.8-28.2-11.9-27.1-12.8-33.4 25.8-74.5 19.4-109.4 1.1-26.1 23.6-71.6 24.4-95.6-2.2-6 6.1-22.6 8.1-36 4.9-8.8-2.2-10.9-6.1-10.9-6.1-4.6 2.4-10.2 3.9-16 5.3-8.9 2-31.4 4.3-37.6-5.1-8.4-12.8 23-24.4 30.9-16.9 9.2-18.3 32-30 50.3-20.7 4.6-11.5 16.2-20.4 27.9-24.4 11.8-3.9 31.6 1.4 42.2 7.8 1.1-7 4.4-13.3 9.1-18.4z"/>
		<path id="&lt;Compound Path&gt;" class="s2" d="m236.5 22c-8.8-7.1-20.6-12.6-31.1-14.5-9.8-1.8-23.1-0.5-30.4 7-2.5 2.4-5.1 6.6-2.2 10 2.6 3.2 8.8 2.3 12.4 2.2q8.6-0.2 17.2 0.8c6.4 0.7 12.7 1.9 18.8 3.6 5.9 1.6 12.2 5.3 18.3 5.6 1.2 0 2.4-0.1 3.3-0.7 1.6-1.1 2.1-3.3 1.5-5.1-0.5-1.9-1.8-3.4-3.1-4.7q-2.1-2.2-4.7-4.2zm-94.1 15.6c-8.6-6.8-23.8-7.7-32.3-0.5-1 0.8-1.9 1.7-2.4 2.8q-0.1 0.4-0.2 0.8c-1.5 7.2 14.7 4.6 18.2 4.4q7.9-0.4 15.7-0.7c0.9-0.1 1.7-0.1 2.4-0.6 1-0.7 1.3-2.2 0.9-3.3-0.4-1.2-1.3-2.1-2.3-2.9zm189.8 2.8c-0.9-1.4-2.1-2.8-2.9-3.5-6.8-6.4-14.8-12-23.9-14.4-3.7-1-18.8-3.9-23.3 0.4-1.1 1.1-1.6 2.7-1 4.8 1.3 5 13.6 7.2 17.8 8.7 5.8 1.9 11.6 3.6 17.4 5.4 4.3 1.3 10.2 4.6 14.7 3.8 3.1-0.6 2.6-3 1.2-5.2z"/>
		<path id="&lt;Path&gt;" class="s3" d="m454.8 85c-4.1-4.3-10.8-5.7-16.9-5.9-8.5-0.4-17.1 0.5-25.3 2.8-7.7-7.7-18.3-13.1-29.2-12.6-10.9 0.4-21.7 7.7-24.5 18.2-7.8-10.2-22.6-14.5-34.7-10.1-7.4-17.5-23.4-32.3-42.3-33.8-18.9-1.5-38.8 14-38.2 33-12-14.7-36.2-17.1-50.9-5.1 3.8-7.5-1.3-17.1-8.7-20.9-7.4-3.9-16.3-3.4-24.6-2-8.4 1.5-17.3 4.1-22.6 10.8-5.3 6.6-4.8 18.4 2.9 22.1-8.8-5.2-17.8-10.6-27.9-12.2-10.1-1.7-21.6 1.1-27.5 9.4-3.3-7.4-11.4-12.5-19.6-12.2-8.1 0.3-15.8 6-18.5 13.7-10.6-1.3-21.4-1.1-31.9 0.6-4.9 0.7-10.7 3.5-12.3 7.5 7 8.3 28.3 6.1 36.9 4.2 5.8-1.4 11.4-2.9 16-5.3 0 0 2.1 3.9 10.9 6.1 13.4 3.2 30 1.2 36-4.9 24 26.6 69.5 25.8 95.6 2.2 34.9 18.3 76 24.7 109.4-1.1-1.1 0.9 24.9 12 27.1 12.8 8.7 2.9 16.3 4.4 25.7 4.2 10.7-0.2 33.3-4.3 39.9-16.7 14.3 10.8 41.7 4.1 45.6 2.5 3.5-1.5 7.2-4 9.6-7.3z"/>
	</g>
</svg>