<svg xmlns="http://www.w3.org/2000/svg" width="1245" height="1696" version="1.2" viewBox="0 0 1245 1696"><style>.s4{fill:#79ad48}.s10{fill:#377036}.s11{fill:#b4d570}</style><g id="Capa 2"><path id="&lt;Path&gt;" d="m1180.9 1358.1.6-.3.4-.2.6-.3.4-.2.6-.3.4-.2.6-.3.4-.2.6-.3.4-.2.6-.3.4-.2.9-.6.5-.2.5-.3.5-.3.4-.2.6-.4.4-.2.5-.3.5-.3.5-.3.4-.3.5-.3.4-.3q1.2-.7 2.3-1.5l.8-.5.1-.1.8-.6.1-.1.8-.5.1-.1.8-.6c35.1-26 57.4-74.7 38.5-110.2-53.4-10.3-89.6-22.2-118.4-36.7q-2.7-1.4-5.3-2.8l-.3-.1-3.4-1.8-.9-.6q-3.5-1.9-6.9-3.9l-.9-.5q-3.3-2-6.5-4l-1-.6q-4-2.6-7.9-5.3l-3.2-2.2c-5.1-3.6-10.2-7.4-15.2-11.3l-3.4-2.6-2.2-1.8-1.2-1q-2.2-1.8-4.5-3.6-3.9-3.3-8-6.7-2.3-1.9-4.6-3.9-1.1-1-2.3-2l-1.2-1c-2-1.7-4.1-3.5-6.1-5.3l-3.8-3.2-.1-.2-3.2-2.8-.1-.1q-1.6-1.4-3.2-2.9l-.2-.2q-1.6-1.4-3.1-2.8l-.1-.1q-1.5-1.4-3.1-2.8l-.4-.4q-1.4-1.3-2.8-2.5l-.7-.7q-1.3-1.2-2.7-2.5l-.6-.5q-1.2-1.2-2.4-2.3l-1.2-1.2q-.8-.7-1.5-1.4c-69.6-65-142.4-139.4-244.8-122.8-49.9 8-92.8 39-140.4 55.8-17 6-34.5 10.2-52.3 12.9-20.7-116.5-30-209.9-29.5-296.7 65.8-37.9 119.1-60.8 164.2-74 30 64.9 88 116.3 156 138.1 68.6 22 146.3 13.7 208.6-22.3 83.8-48.5 133.2-138.6 175.4-225.6q-.8.1-1.5.2c-78 11-151.1-39.3-228.2-57.7h-.4q-.7-.2-1.5-.4l-.3-.1q-.7-.1-1.4-.3l-.5-.1q-2.9-.6-5.7-1.2-14.5-2.9-29.3-4.2-1.5-.1-2.9-.2-10.4-.8-20.7-.7-3 0-5.9.1-3 0-5.9.2-5.8.2-11.6.8-1.6.1-3.2.3l-5.6.6-3.2.4q-2.9.4-5.9.9-5.6.8-11.1 1.9-1.7.4-3.4.7-1.4.3-2.9.7-2.9.6-5.7 1.3-14.4 3.6-28.3 8.6-2.8 1.1-5.5 2.1c-11.1 4.3-21.8 9.4-32.1 15.1q-5.2 2.9-10.2 6c-12.5 7.7-24.2 16.5-35 26.1q-2.2 1.9-4.3 3.9l-4.2 4-2 2q-3.1 3.1-6.1 6.3-1 1-1.9 2.1-2 2.1-3.9 4.3-1 1.1-1.9 2.2-6 7-11.6 14.5-1.8 2.5-3.6 5.1-1 1.3-1.9 2.6-.5.7-1 1.5-2.5 3.7-4.9 7.4c-8.6 13.6-16 28.1-22.2 43.2-45.7 12.8-99.8 35.6-166.7 73.7q.2-7.5.4-14.9c2.3-83.5 13.8-152.3 35-210.6q.5-1.4 1-2.7c70.5 5.4 142.9-19.6 195-67.5 53-48.8 84.2-120.4 83.7-192.4-.7-96.7-54.6-184.2-109.4-264q-.3.7-.6 1.5v-.1c-29.2 73.9-110.2 112.7-164.3 171.4l-.2.2q-2.6 2.8-5.1 5.8c-26.5 30.5-45.8 67.2-56.4 106.2q-1.1 4.3-2.1 8.6-1.7 7.2-3 14.5c-2.7 14.5-4.1 29.3-4.2 44.1v5.9q0 2.9.2 5.9 0 1.4.1 2.9.3 7.3 1.1 14.6.2 1.4.4 2.9.5 4.3 1.1 8.6l1 5.8q.5 2.8 1.1 5.7.8 4.2 1.8 8.5 2.7 11.2 6.4 22.2.9 2.7 1.9 5.5 2.4 6.8 5.2 13.4 1.2 2.7 2.3 5.3 1.2 2.7 2.5 5.3 1.2 2.6 2.5 5.2 2.2 4.4 4.5 8.6l2.4 4.2q2.1 3.8 4.4 7.5 1.5 2.5 3.1 5 3.2 4.9 6.6 9.7l3.4 4.8q.9 1.1 1.7 2.3l5.6 7.2q-.8 2.2-1.7 4.5c-21.5 59.1-33.1 128.9-35.5 213.3-1.1 38.6-.2 78.3 2.8 120.5-38.2-60-72.8-102.7-104.9-133.9q1-9.9 1.3-19.8.1-2.9.1-5.8v-2.9c0-21.4-2.4-42.6-7.4-63.2q-.4-1.4-.7-2.8-1.4-5.6-3.1-11.2-.4-1.3-.9-2.7c-4-12.9-9.1-25.5-15.2-37.7q-1.3-2.6-2.7-5.2-1.4-2.5-2.8-5.1-3.6-6.4-7.6-12.6c-5.8-9.2-12.3-17.9-19.2-26.3q-1.9-2.2-3.8-4.5-9.7-11.1-20.6-21.2-2.2-2-4.4-3.9-5.5-4.9-11.3-9.5-9.3-7.4-19.2-13.9l-5-3.2q-12.5-7.9-25.8-14.4-1.3-.6-2.7-1.2c-11.6-5.5-23.5-10.2-35.8-13.9-78.7-24-171.8-11.5-237.9-60.1v.1l-1.3-.9c-4 96.6-3.1 199.4 47.7 281.7 37.8 61.3 102.3 105.4 173.1 118.5 70.6 13.1 146.4-5 203.6-48.4 32.5 32.5 67.7 77.3 107.2 141.2l.6.8c4.7 55.8 12.9 116.2 25 184.4-38.9 4.9-78.9 3.2-118.1-.8-59.9-6.2-119.4-17.8-179.7-18.8-60.2-.9-122.7 9.6-172.4 43.7s-86.8 97.3-72.9 154.6c2.8 11.6 8.5 22.7 16.3 31.3 12.6 13.8 28.7 22.7 46 29.5q1.3.5 2.7 1l2.8 1q.6.3 1.3.5 2.8 1 5.6 1.9l4.2 1.4q2.1.7 4.2 1.3l1.4.4q2.1.7 4.2 1.3l1.4.4 2.8.8 2.8.8 2.8.8c7.4 2.1 15 4.3 22.4 6.6q.7.3 1.4.5 1.4.4 2.8.9l2.8 1q1.4.4 2.8.9 2 .8 4.1 1.6.9.3 1.7.6 3.6 1.4 7.1 3l2 .8 1.3.6q.9.5 1.9.9 2.1 1 4.1 2.1 1.2.6 2.4 1.3l1.2.6q2.7 1.5 5.3 3.2l.6.3c6.8 4.3 13.1 9.4 18.8 15.3 11.7 12.3 19.7 27.5 26 44q.3.7.6 1.5c3.1 8.4 5.9 17 8.5 25.8l.3.8q.5 1.9 1.1 3.8l1.2 4q2 6.6 3.9 13.2l.3.8q1.5 5 3.1 10l.2.7q1.4 4.2 2.9 8.3l.3.9q1.1 3.1 2.3 6.2.5 1.3 1.1 2.6 1.2 3.1 2.6 6l.4.9q.4 1 .8 1.9 1.1 2.3 2.2 4.5 1.1 2 2.2 3.9l.7 1.3q1.1 1.9 2.3 3.8.7 1 1.3 2.1l.6.8q.5.8 1.1 1.6 2.7 3.8 5.8 7.3 1.6 1.9 3.4 3.6l1 1c4.4 4.3 9.2 8 14.8 11.2 8.2 4.7 17.2 7.6 26.4 9.7l.5.1q2.5.5 5.1 1 1.3.3 2.6.5 1.4.3 2.7.5l6.6 1 .4.1 7.8 1.2q.8.1 1.6.3 1.2.2 2.5.4h.4q3.9.7 7.7 1.4 2.2.5 4.5.9l2.4.6q2.7.6 5.3 1.4l1.3.4h.1l1.1.3.3.1.9.3.4.1.9.3.4.2.8.3.4.1 1.2.4c6.7 2.5 12.9 5.7 18.8 9.4q1.1.7 2.3 1.5c4.6 3.1 9 6.5 13.2 10.2l1.1.9q1 1 2 1.9 2.6 2.4 5.1 4.9 3 3 5.9 6.2l1 1q1 1.1 1.9 2.2c3.5 3.9 7 8 10.3 12.2q.9 1.1 1.9 2.2l9 11.6 1.8 2.4q.9 1.1 1.8 2.3l1.8 2.4q1.4 1.7 2.8 3.5.9 1.1 1.8 2.3 2.7 3.5 5.5 7 .9 1.1 1.8 2.3l.9 1.1q1 1.2 1.9 2.3.9 1.2 1.9 2.3l2.8 3.4 1 1.1 3.8 4.4 3 3.2 5 5.2 1.1 1c6.2 6.1 12.7 11.7 19.8 16.7q2 1.4 4.1 2.7l1 .7q.8.4 1.5.9 2.7 1.6 5.5 3.1 3.8 2 7.7 3.8l.9.4q.8.3 1.5.6.8.4 1.5.7 7.8 3.2 15.9 5.3l.5.2c8.6 2.2 17.4 3.7 26.3 4.4l1.2.1c9.4.7 18.9.5 28.4-.4l.2-.1q3-.3 5.9-.7.7 0 1.4-.1 4.2-.6 8.4-1.4 2.1-.4 4.1-.9l2-.4.5-.1q.9-.2 1.9-.4l.6-.2 1.8-.4q.9-.3 1.8-.5t1.8-.5l.6-.2 1.8-.4.7-.2q.8-.3 1.6-.5 7-2.1 13.8-4.7l1.4-.6q2.6-1 5.1-2.1 1.6-.7 3.3-1.4 1.2-.5 2.4-1.1 4.5-2.1 8.9-4.3 1-.5 2.1-1.1 5.3-2.8 10.6-5.9c9.8-5.8 19.3-12.2 28.5-19.1l2.4-1.8q2.7-2.1 5.4-4.3 1.6-1.2 3.1-2.5 1.4-1.1 2.7-2.2 1.2-1 2.4-2.1 2.5-2 4.9-4.1 1.9-1.7 3.7-3.3 2.8-2.5 5.6-5.1l5.4-5q1-1 2-1.9 1.8-1.7 3.5-3.4l.1-.1q3.6-3.5 7.1-7.1 1.8-1.7 3.5-3.5l.1-.1q1.7-1.7 3.4-3.5.9-.9 1.8-1.9l1.8-1.8 3.4-3.6q3.5-3.7 6.9-7.4 6.7-7.2 13.4-14.6 1.6-1.9 3.3-3.7 3.3-3.7 6.7-7.4 1.6-1.9 3.3-3.8.8-.9 1.7-1.8l5-5.6q.8-1 1.7-1.9 3.3-3.7 6.7-7.5.8-.9 1.7-1.8c57.1-63.6 117-125.9 196.9-146.7 52.4-13.6 109.2-7.6 159-29.2l.2-.1.8-.4z" style="fill:#92c95b"/><path d="M538.2 761.8c65.8-37.9 119.1-60.8 164.2-74 85.4-24.9 141.2-15 195.8-5.3 10.9 2 22.2 4 33.5 5.7 115.4 17.3 204.3-18.4 258.5-51.3 2-1.3 2.7-3.9 1.5-5.9-1.3-2-3.9-2.6-5.9-1.4-53 32.3-139.9 67.1-252.9 50.2-11.2-1.7-22.4-3.7-33.2-5.6-54.6-9.7-110.5-19.7-194.7 4-45.7 12.8-99.8 35.6-166.7 73.7q.2-7.5.4-14.9c2.3-83.5 13.8-152.3 35-210.6q.5-1.4 1-2.7c22.1-59.2 58.4-110.9 93.6-161 14-19.9 28.4-40.5 41.9-61.4 42.7-66.2 83.8-145 64.8-227.2-.5-2.3-2.8-3.7-5.1-3.2s-3.7 2.8-3.2 5.1c18.3 79.1-21.9 156-63.6 220.7-13.4 20.8-27.8 41.3-41.8 61.1-35.1 50-71.4 101.7-93.9 161.2q-.8 2.2-1.7 4.5c-21.5 59.1-33.2 128.9-35.5 213.3-1.1 38.6-.2 78.3 2.8 120.5-38.2-60-72.8-102.7-104.9-133.9-62.3-60.4-115.3-77.5-167.2-94.2-11.2-3.6-22.9-7.4-34.4-11.5-107.5-38.6-167.6-110.5-199-164-1.2-2-3.8-2.7-5.8-1.5-2 1.2-2.7 3.8-1.5 5.8 32.1 54.7 93.5 128.3 203.4 167.7 11.7 4.1 23.4 7.9 34.7 11.5 54.2 17.5 106.3 34.3 168.2 96.1 32.5 32.5 67.7 77.3 107.2 141.2l.6.8c4.7 55.8 12.9 116.2 25 184.4l8.4-1.2c-20.7-116.5-30-209.9-29.5-296.7z" style="fill:#377036;stroke:#78ad48;paint-order:stroke fill markers;stroke-linejoin:round;stroke-width:24"/><path d="M1237.8 1236.9c-110.2-21.2-147.1-49.6-197.3-92.4-80.9-69-160.2-174.2-280.1-154.7-49.9 8-92.8 39-140.4 55.8-17 6-34.5 10.2-52.3 12.9l-8.4 1.2c-38.9 4.9-78.9 3.2-118.1-.8-59.9-6.2-119.4-17.8-179.7-18.8-60.2-.9-122.7 9.6-172.4 43.7s-86.8 97.3-72.9 154.6q-.2-.8-.4-1.5z" style="fill:#7eb047"/><path d="M1237.8 1236.9H15.8q.2.7.4 1.5c2.8 11.6 8.5 22.7 16.3 31.3 21.2 23.2 52.4 32.7 82.2 41.1 29.8 8.4 61.1 17.5 82.7 40.2 45.4 47.7 34.3 140 91 172.5 25.4 14.6 56.9 11.4 84.3 21.6 57 21.2 80.7 92.1 131 127.1 43.6 30.3 102.7 28.9 151.4 8.1 48.6-20.7 88.6-58.3 125-97.6 71.4-77.2 140.1-168.7 240.4-194.8 52.4-13.6 109.2-7.6 159-29.2 45.6-19.8 80.5-80 58.3-121.8z" style="fill:#7f4c22"/><path d="M27.5 453.7c28.1 47.8 78.9 110.1 165.9 150.4 27 8.8 54.8 15.6 81.6 24.5 24.7 8.2 49 17.8 72 30.2 21.2 11.4 43.7 24.9 59.3 43.6q1.8 2 3.4 4.2 9 7.8 18.4 16.8c6-59.3-6.7-118.6-39-169-11.2-17.5-24.4-33.5-39.3-47.9q-2.1-2.1-4.3-4.1l-2.2-2q-3.3-2.9-6.7-5.8-3.4-2.9-6.8-5.6-2.4-1.9-4.7-3.6l-2.4-1.8q-2.4-1.8-4.8-3.5l-4.8-3.4q-3.7-2.4-7.5-4.8-3.7-2.4-7.6-4.6-5.1-3-10.3-5.8-1.3-.6-2.6-1.3-7.9-4.1-16.1-7.6-13.5-5.9-27.7-10.2-2.8-.9-5.6-1.6l-.9-.3-.9-.3-.7-.1-1.2-.4-.5-.1-1.4-.4h-.1c-76.1-19.7-163.6-10.6-226.7-56.9l.1.1c4.9 23.7 11.4 47.1 20.9 69.2 1.3.2 2.5.9 3.2 2.1zM734.4 669.2c22.6-9 48.8-10.3 72.9-10.3 26.1 0 52.1 3.1 77.7 7.5 27.9 4.9 55.6 12.1 83.5 17.1 95.7 5.7 170-25.1 217.3-53.9 1.2-.7 2.7-.8 3.9-.3 18.8-15 35.6-32.5 51.2-51.1-81.3 11.4-157.3-43.7-238-59.8-33.9-6.8-69-6.8-102.9-.3q-2.9.5-5.8 1.1-2.9.6-5.8 1.3-2.8.7-5.7 1.4-2.9.8-5.7 1.6-1.4.4-2.9.8-4.2 1.2-8.4 2.6-5.7 1.9-11.2 4-6.9 2.6-13.7 5.6-10.8 4.8-21.1 10.5c-25.9 14.4-48.5 33-67.6 54.7q-3.8 4.3-7.4 8.8-2.7 3.4-5.3 6.9-2.7 3.5-5.1 7-5.9 8.4-11.1 17.1-2.9 5-5.7 10.2l-1.4 2.6q-6.1 11.6-11.1 23.9 11.2-3.1 21.7-5.5 3.8-1.9 7.7-3.5zM572.2 486.5c3.3-24.1 15.2-47.5 27.1-68.5 12.9-22.6 28.4-43.7 44.9-63.8 32.8-39.9 72.5-75.4 95.3-122.4 21.6-44.5 29.6-94.9 25.1-144-2.7-29.7-10.8-58.5-21.2-86.5v-.1c-29.2 73.9-110.2 112.7-164.3 171.4l-.2.2q-2.6 2.8-5.1 5.8c-13 14.9-24.2 31.2-33.5 48.6l-1.4 2.6q-4.1 7.9-7.6 16-3 6.8-5.7 13.7-1 2.8-2 5.5-4.9 14-8.3 28.4-.7 2.9-1.3 5.8-.3 1.4-.6 2.9-.6 2.9-1.1 5.8c-2.7 14.5-4.1 29.3-4.2 44.1-.6 61.2 21.1 119.3 59.3 167q2-5.3 4.1-10.4c-.5-7.2-.4-14.6.7-22.1z" class="s4"/><path d="M1237.8 1236.9H1183c-4.4 6.7-9.6 12.9-15.9 18.2-21.9 18.3-51.4 22.2-78.9 21-30.2-1.2-59.9-8.2-89.6-13.5-28.1-5-56-7.8-84.5-5.6-59 4.6-118.4 25.1-162.1 66.1-35.7 33.3-57 79.2-94 111.2-17.4 15.1-40.1 26.1-63.4 27-16.9.6-31.7-6.4-44-17.7-27.3-25-42.1-60.9-70.1-85.4-14.4-12.7-31.9-21.2-51.4-22-25.7-1.1-44.4 16.2-66.3 26.5-8.1 3.9-20.9 8.2-29.2 2.6-7-4.7-9.2-15.4-10.5-23.1-3.5-21.2 2.8-44.1-4.5-64.7-9.8-27.7-40.4-31.7-66.1-30.5-15.7.7-31.2 3.3-46.9 3.4-15.5 0-31.3-.8-46.8-2.3-17.1-1.6-33.8-5-49.4-11.2H15.8q.2.7.4 1.5c2.8 11.6 8.5 22.7 16.3 31.3 21.2 23.2 52.4 32.7 82.2 41.1q6.5 1.8 13.1 3.8 2.2.6 4.4 1.3 1.8.5 3.5 1.1 1.7.5 3.5 1.1 1.7.6 3.5 1.2 2.6.9 5.1 1.8 1.8.6 3.5 1.3 1.7.6 3.4 1.3 1.6.7 3.3 1.4 5.9 2.5 11.5 5.4 2.8 1.4 5.5 3l2.8 1.8q1.2.7 2.3 1.4l1.2.8q1.9 1.3 3.7 2.6l.8.6c4.1 3.1 8 6.5 11.6 10.3 11.9 12.5 20 28.1 26.3 44.9l.5 1.1q1.8 4.8 3.4 9.7.4 1.2.8 2.3.4 1.4.9 2.7.5 1.8 1.1 3.5 1.8 6 3.6 12.1l1 3.2q.8 2.8 1.7 5.7.3 1.1.6 2.1.5 1.5.9 3.1.3.9.6 1.9.4 1.2.7 2.4l.2.7 2.2 6.8.3 1q.3 1 .7 2 .5 1.8 1.1 3.6l1.6 4.4q.3.8.5 1.5.8 2.2 1.7 4.4 2.6 6.9 5.8 13.4l1 2c2.4 4.9 5.1 9.6 8.2 14l1.8 2.6q1 1.3 2 2.5 1 1.3 2 2.5 3.6 4.2 7.9 7.9 1.8 1.6 3.7 3 3.8 3 8.2 5.5.9.5 1.9 1l.3.2.8.4.3.2.7.3.5.2.6.4.5.2.7.3.4.2.8.3.4.2.7.3.5.2.6.3.5.2.7.2.5.2.7.3.4.1.8.3.4.2.7.2.5.2.7.2.5.1.7.2.5.2.7.2.5.2.7.2.5.1.8.2.4.1.8.2.5.2.6.1.6.2.7.1.5.2.7.1.5.1.8.2.4.1.8.2.5.1.7.1.5.1.7.2.6.1.7.1.5.1.8.2.4.1.9.1.3.1.9.1.4.1.9.2h.3l1 .2h.3l.9.2h.4l.9.2h.3l1 .2h.2c4.4.7 8.8 1.4 13.3 2.1h.1q1.1.2 2.3.4h.2q1.3.3 2.5.5l1.1.2h.2l1 .2h.3l1 .2.3.1q3.7.7 7.3 1.6h.2l1.1.3h.1l1.2.3.1.1 1 .2.3.1.9.3h.2l1.2.4h.1l1.1.3h.1l.2.1h.1l.8.3h.1l.3.1.9.3.1.1h.2l.1.1.8.2.1.1.3.1 1.2.4c6.9 2.6 13.3 5.9 19.3 9.7q.7.5 1.4.9 1.3.9 2.7 1.9 3.3 2.3 6.6 4.9c4.7 3.9 9.2 8 13.5 12.4l4 4.2q.9 1 1.8 1.9c27.1 29.8 48.7 68.2 81.7 91.2q7 4.8 14.4 8.6l.8.4q.9.4 1.8.9h.1q1 .5 2 .9.7.4 1.4.7.9.4 1.9.8l2 .8.9.4 1.2.5q2.2.8 4.5 1.6 1.3.4 2.7.9 2.7.9 5.5 1.6l1.6.4.6.2q1.5.4 2.9.7l.6.1q.9.3 1.9.5l.5.1q2.1.4 4.3.8 1.4.3 2.8.5 1 .2 2.1.3h.3q1.1.2 2.1.3l.3.1q2.4.3 4.8.5l1.2.1q1.8.2 3.6.3h.1l3.6.2h.1q3.4.1 6.8.1h3.4l3.4-.2h1.2l6.2-.4 1.2-.1 3.6-.4h.3q1.1-.2 2.2-.3h.3q2.4-.3 4.8-.7l2.4-.4q1.3-.2 2.5-.4 1-.2 2.1-.4 2.1-.5 4.2-.9 1-.2 2.1-.5 3.1-.7 6.2-1.5 1-.3 2.1-.6l.6-.2q1.5-.4 2.9-.8 1.5-.5 3-.9.7-.3 1.5-.5 2.2-.7 4.3-1.5 1.5-.5 2.9-1.1 4.4-1.6 8.6-3.4 5.4-2.3 10.7-4.9 4.5-2.2 8.8-4.5l2.8-1.6q1.2-.6 2.4-1.3 1.7-.9 3.4-1.9 1.7-1.1 3.4-2.1 1.6-1 3.3-2.1.8-.5 1.7-1 1.3-.9 2.7-1.8 1.1-.7 2.2-1.5.8-.5 1.7-1.1 5.5-3.7 10.8-7.7l.8-.6 2.4-1.8q1-.8 2-1.5l1.6-1.2q9.2-7.3 18.1-15.2l.4-.3q7.4-6.6 14.5-13.5.8-.6 1.5-1.3 1.4-1.4 2.9-2.8 2.1-2.2 4.3-4.3.9-.9 1.7-1.8 1.8-1.7 3.5-3.5l.1-.1q1.7-1.7 3.4-3.5 1-1 1.9-2 1.7-1.7 3.3-3.4l.2-.2q4.3-4.5 8.5-9.1c8.7-9.4 17.3-19 26-28.6l7.8-8.8q3.9-4.3 7.8-8.7l.3-.4 8-8.8q7.9-8.8 16-17.4 4-4.4 8.1-8.6l.1-.2q6.8-7.2 13.7-14.2c13.7-13.8 27.8-27 42.4-39.2q1.7-1.4 3.4-2.7 1.9-1.7 3.9-3.2l1.1-.9q3.2-2.5 6.4-4.9l1.3-1 6.2-4.6q.8-.5 1.5-1 3.1-2.2 6.2-4.3 4.8-3.2 9.8-6.3 2.9-1.9 5.9-3.6 5.2-3.1 10.5-6 2.8-1.5 5.7-2.9c15.3-7.8 31.3-14.1 48.3-18.5 5.8-1.5 11.7-2.7 17.5-3.8l3.4-.6q2.8-.5 5.5-.9 1.5-.3 3-.5 2.9-.4 5.9-.8l6-.8q3-.4 6-.7l.5-.1c10-1.1 20.1-2 30.1-3.1q1.3-.1 2.6-.3 5-.5 10.1-1.1 3.7-.5 7.5-1 .9-.1 1.9-.3 1.9-.2 3.7-.5l3.8-.6q2.8-.4 5.6-.9l7.4-1.4q1.2-.3 2.5-.6 3.7-.7 7.3-1.7l2.4-.6q7.3-1.9 14.5-4.3 1.2-.4 2.4-.9 2.3-.8 4.7-1.8 2.3-.9 4.7-1.9l1-.5.3-.1.7-.3.4-.2.6-.3.4-.2.6-.3.4-.2.6-.3.4-.2.7-.3.3-.2.7-.4.3-.1.9-.6.5-.2.5-.3.5-.3.5-.3.5-.3.4-.2.5-.3.5-.3.5-.3.4-.3.5-.3.4-.3.6-.3.2-.2q.7-.4 1.3-.9l.3-.1.7-.5.1-.1.7-.5.3-.2.6-.5.2-.1.8-.6 1.3-1 .2-.1 1.3-1 .1-.1 1.2-1 .1-.1 1.3-1 .1-.1c31.7-26.8 50.8-72.2 32.9-105.8z" style="fill:#8c5528"/><path d="M1243.3 1252.6c-5.4 14.6-13.2 28.4-22.5 40.4-18.6 23.9-47.2 35.7-76.9 37.4-30.1 1.7-60-5.2-89.5-10.1-34-5.7-69.1-10.1-103.7-9.7-34.7.4-68.9 6.9-99.1 24.6-23.8 14-42.8 34.1-59.4 56-33.1 43.6-57.5 94.4-100.7 129.6-43.2 35.2-115.6 63.4-156 9.1-15.8-21.2-19.9-48.8-36-69.7-18.8-24.3-52.3-22.9-79.7-19.3-30.7 4.1-61.9 12.5-93 6.4-26.1-5.1-47.1-21.4-53.3-47.8-5.2-22.3-1.1-45.5-6-67.7-2.3-10.7-7-20.6-16.2-27-11.1-7.7-24.8-10.6-38-12.2-28-3.4-56.4.1-84.5-3.1-22.4-2.5-44.2-8.7-65.2-16.9-14-5.5-29.4-13-43.4-22.5 3.1 7.2 7.2 14 12.3 19.6 21.2 23.2 52.4 32.7 82.2 41.1 5.8 1.6 11.7 3.3 17.5 5.1q1.8.5 3.5 1.1 1.7.5 3.5 1.1 1.7.6 3.5 1.2 2.6.9 5.1 1.8 1.8.6 3.5 1.3 1.7.6 3.4 1.3 1.6.7 3.3 1.4 5.9 2.5 11.5 5.4 2.8 1.4 5.5 3l2.8 1.8q1.2.7 2.3 1.4l1.2.8q1.9 1.3 3.7 2.6l.8.6c4.1 3.1 8 6.5 11.6 10.3 11.9 12.5 20 28.1 26.3 44.9l.5 1.1q1.8 4.8 3.4 9.7.4 1.2.8 2.3.4 1.4.9 2.7.5 1.8 1.1 3.5 1.8 6 3.6 12.1l1 3.2q.8 2.8 1.7 5.7.3 1.1.6 2.1.5 1.5.9 3.1.3.9.6 1.9.4 1.2.7 2.4l.2.7 2.2 6.8.3 1q.3 1 .7 2 .5 1.8 1.1 3.6l1.6 4.4q.3.8.5 1.5.8 2.2 1.7 4.4 2.6 6.9 5.8 13.4l1 2c2.4 4.9 5.1 9.6 8.2 14l1.8 2.6q1 1.3 2 2.5 1 1.3 2 2.5 3.6 4.2 7.9 7.9 1.8 1.6 3.7 3 3.8 3 8.2 5.5.9.5 1.9 1l.3.2.8.4.3.2.7.3.5.2.6.4.5.2.7.3.4.2.8.3.4.2.7.3.5.2.6.3.5.2.7.2.5.2.7.3.4.1.8.3.4.2.7.2.5.2.7.2.5.1.7.2.5.2.7.2.5.2.7.2.5.1.8.2.4.1.8.2.5.2.6.1.6.2.7.1.5.2.7.1.5.1.8.2.4.1.8.2.5.1.7.1.5.1.7.2.6.1.7.1.5.1.8.2.4.1.9.1.3.1.9.1.4.1.9.2h.3l1 .2h.3l.9.2h.4l.9.2h.3l1 .2h.2c4.4.7 8.8 1.4 13.3 2.1h.1q1.1.2 2.3.4h.2q1.3.3 2.5.5l1.1.2h.2l1 .2h.3l1 .2.3.1q3.7.7 7.3 1.6h.2l1.1.3h.1l1.2.3.1.1 1 .2.3.1.9.3h.2l1.2.4h.1l1.1.3h.1l.2.1h.1l.8.3h.1l.3.1.9.3.1.1h.2l.1.1.8.2.1.1.3.1 1.2.4c6.9 2.6 13.3 5.9 19.3 9.7q.7.5 1.4.9 1.3.9 2.7 1.9 3.3 2.3 6.6 4.9c4.7 3.9 9.2 8 13.5 12.4l4 4.2q.9 1 1.8 1.9c27.1 29.8 48.7 68.2 81.7 91.2q7 4.8 14.4 8.6l.8.4q.9.4 1.8.9h.1q1 .5 2 .9.7.4 1.4.7.9.4 1.9.8l2 .8.9.4 1.2.5q2.2.8 4.5 1.6 1.3.4 2.7.9 2.7.9 5.5 1.6l1.6.4.6.2q1.5.4 2.9.7l.6.1q.9.3 1.9.5l.5.1q2.1.4 4.3.8 1.4.3 2.8.5 1 .2 2.1.3h.3q1.1.2 2.1.3l.3.1q2.4.3 4.8.5l1.2.1q1.8.2 3.6.3h.1l3.6.2h.1q3.4.1 6.8.1h3.4l3.4-.2h1.2l6.2-.4 1.2-.1 3.6-.4h.3q1.1-.2 2.2-.3h.3q2.4-.3 4.8-.7l2.4-.4q1.3-.2 2.5-.4 1-.2 2.1-.4 2.1-.5 4.2-.9 1-.2 2.1-.5 3.1-.7 6.2-1.5 1-.3 2.1-.6l.6-.2q1.5-.4 2.9-.8 1.5-.5 3-.9.7-.3 1.5-.5 2.2-.7 4.3-1.5 1.5-.5 2.9-1.1 4.4-1.6 8.6-3.4 5.4-2.3 10.7-4.9 4.5-2.2 8.8-4.5l2.8-1.6q1.2-.6 2.4-1.3 1.7-.9 3.4-1.9 1.7-1.1 3.4-2.1 1.6-1 3.3-2.1.8-.5 1.7-1 1.3-.9 2.7-1.8 1.1-.7 2.2-1.5.8-.5 1.7-1.1 5.5-3.7 10.8-7.7l.8-.6 2.4-1.8q1-.8 2-1.5l1.6-1.2q9.2-7.3 18.1-15.2l.4-.3q7.4-6.6 14.5-13.5.8-.6 1.5-1.3 1.4-1.4 2.9-2.8 2.1-2.2 4.3-4.3.9-.9 1.7-1.8 1.8-1.7 3.5-3.5l.1-.1q1.7-1.7 3.4-3.5 1-1 1.9-2 1.7-1.7 3.3-3.4l.2-.2q4.3-4.5 8.5-9.1c8.7-9.4 17.3-19 26-28.6l7.8-8.8q3.9-4.3 7.8-8.7l.3-.4 8-8.8q7.9-8.8 16-17.4 4-4.4 8.1-8.6l.1-.2q6.8-7.2 13.7-14.2c13.7-13.8 27.8-27 42.4-39.2q1.7-1.4 3.4-2.7 1.9-1.7 3.9-3.2l1.1-.9q3.2-2.5 6.4-4.9l1.3-1 6.2-4.6q.8-.5 1.5-1 3.1-2.2 6.2-4.3 4.8-3.2 9.8-6.3 2.9-1.9 5.9-3.6 5.2-3.1 10.5-6 2.8-1.5 5.7-2.9c15.3-7.8 31.3-14.1 48.3-18.5 5.8-1.5 11.7-2.7 17.5-3.8l3.4-.6q2.8-.5 5.5-.9 1.5-.3 3-.5 2.9-.4 5.9-.8l6-.8q3-.4 6-.7l.5-.1c10-1.1 20.1-2 30.1-3.1q1.3-.1 2.6-.3 5-.5 10.1-1.1 3.7-.5 7.5-1 .9-.1 1.9-.3 1.9-.2 3.7-.5l3.8-.6q2.8-.4 5.6-.9l7.4-1.4q1.2-.3 2.5-.6 3.7-.7 7.3-1.7l2.4-.6q7.3-1.9 14.5-4.3 1.2-.4 2.4-.9 2.3-.8 4.7-1.8 2.3-.9 4.7-1.9l1-.5.3-.1.7-.3.4-.2.6-.3.4-.2.6-.3.4-.2.6-.3.4-.2.7-.3.3-.2.7-.4.3-.1.9-.6.5-.2.5-.3.5-.3.5-.3.5-.3.4-.2.5-.3.5-.3.5-.3.4-.3.5-.3.4-.3.6-.3.2-.2q.7-.4 1.3-.9l.3-.1.7-.5.1-.1.7-.5.3-.2.6-.5.2-.1.8-.6 1.3-1 .2-.1 1.3-1 .1-.1c28.5-22.6 47.7-60.3 41.1-92.3z" style="fill:#9e5f2e"/><path d="M1138.7 1360.7c-49.2 2.8-98.4-2.8-147.5-1.5-46.2 1.1-91.3 9.1-127.2 40.1-37.6 32.5-63.7 75.6-90.8 116.6-27.1 41.1-56.1 82.8-97.2 111.1-33.2 22.8-80.6 41.5-119.9 23.7-30.2-13.7-47.1-45.4-62.6-72.9-14.1-24.9-30-56.4-58.8-65.1-24.4-7.3-49 3.6-72.1 10.7-20.6 6.3-42.7 10.2-63.3 5.2 19.9 7.6 42.4 7.9 63.2 13.3l.1.1 1 .2.3.1.9.3h.2l1.2.4h.1l1.1.3h.1l.2.1h.1l.8.3h.1l.3.1.9.3.1.1h.2l.1.1.8.2.1.1.3.1 1.2.4c6.9 2.6 13.3 5.9 19.3 9.7q.7.5 1.4.9 1.3.9 2.7 1.9 3.3 2.3 6.6 4.9c4.7 3.9 9.2 8 13.5 12.4l4 4.2q.9 1 1.8 1.9c27.1 29.8 48.7 68.2 81.7 91.2q7 4.8 14.4 8.6l.8.4q.9.4 1.8.9h.1q1 .5 2 .9.7.4 1.4.7.9.4 1.9.8l2 .8.9.4 1.2.5q2.2.8 4.5 1.6 1.3.4 2.7.9 2.7.9 5.5 1.6l1.6.4.6.2q1.5.4 2.9.7l.6.1q.9.3 1.9.5l.5.1q2.1.4 4.3.8 1.4.3 2.8.5 1 .2 2.1.3h.3q1.1.2 2.1.3l.3.1q2.4.3 4.8.5l1.2.1q1.8.2 3.6.3h.1l3.6.2h.1q3.4.1 6.8.1h3.4l3.4-.2h1.2l6.2-.4 1.2-.1 3.6-.4h.3q1.1-.2 2.2-.3h.3q2.4-.3 4.8-.7l2.4-.4q1.3-.2 2.5-.4 1-.2 2.1-.4 2.1-.5 4.2-.9 1-.2 2.1-.5 3.1-.7 6.2-1.5 1-.3 2.1-.6l.6-.2q1.5-.4 2.9-.8 1.5-.5 3-.9.7-.3 1.5-.5 2.2-.7 4.3-1.5 1.5-.5 2.9-1.1 4.4-1.6 8.6-3.4 5.4-2.3 10.7-4.9 4.5-2.2 8.8-4.5l2.8-1.6q1.2-.6 2.4-1.3 1.7-.9 3.4-1.9 1.7-1.1 3.4-2.1 1.6-1 3.3-2.1.8-.5 1.7-1 1.3-.9 2.7-1.8 1.1-.7 2.2-1.5.8-.5 1.7-1.1 5.5-3.7 10.8-7.7l.8-.6 2.4-1.8q1-.8 2-1.5l1.6-1.2q9.2-7.3 18.1-15.2l.4-.3q7.4-6.6 14.5-13.5.8-.6 1.5-1.3 1.4-1.4 2.9-2.8 2.1-2.2 4.3-4.3.9-.9 1.7-1.8 1.8-1.7 3.5-3.5l.1-.1q1.7-1.7 3.4-3.5 1-1 1.9-2 1.7-1.7 3.3-3.4l.2-.2q4.3-4.5 8.5-9.1c8.7-9.4 17.3-19 26-28.6l7.8-8.8q3.9-4.3 7.8-8.7l.3-.4 8-8.8q7.9-8.8 16-17.4 4-4.4 8.1-8.6l.1-.2q6.8-7.2 13.7-14.2c13.7-13.8 27.8-27 42.4-39.2q1.7-1.4 3.4-2.7 1.9-1.7 3.9-3.2l1.1-.9q3.2-2.5 6.4-4.9l1.3-1 6.2-4.6q.8-.5 1.5-1 3.1-2.2 6.2-4.3 4.8-3.2 9.8-6.3 2.9-1.9 5.9-3.6 5.2-3.1 10.5-6 2.8-1.5 5.7-2.9c15.3-7.8 31.3-14.1 48.3-18.5 5.8-1.5 11.7-2.7 17.5-3.8l3.4-.6q2.8-.5 5.5-.9 1.5-.3 3-.5 2.9-.4 5.9-.8l6-.8q3-.4 6-.7l.5-.1c10-1.1 20.1-2 30.1-3.1q1.3-.1 2.6-.3 5-.5 10.1-1.1 3.7-.5 7.5-1 .9-.1 1.9-.3 1.9-.2 3.7-.5l3.8-.6q2.8-.4 5.6-.9l7.4-1.4q1.2-.3 2.5-.6 3.7-.7 7.3-1.7l2.4-.6q7.3-1.9 14.5-4.3 1.2-.4 2.4-.9 2.3-.8 4.7-1.8 2.3-.9 4.7-1.9c3.3-1.5 6.5-3.2 9.7-5-16.5 4-33.6 6.1-50.5 7z" style="fill:#bb7a49"/><path d="M1205.2 1229.9q-1.1-.2-2.1-.5-1.2-.3-2.3-.6-1.1-.2-2.2-.5l-3.2-.8q-.7-.2-1.5-.4l-1-.3q-.9-.2-1.7-.4-.9-.2-1.8-.5-.7-.2-1.5-.4l-.9-.2-.8-.3h-.1q-.8-.2-1.5-.4-.8-.2-1.6-.5l-.9-.2q-1.1-.3-2.3-.6-.8-.3-1.6-.5-1-.3-2.1-.6-3-.9-6-1.9l-1.4-.4q-1.2-.4-2.3-.8-1.3-.4-2.5-.8l-3.6-1.2q-.8-.3-1.6-.5-1.1-.4-2.1-.7l-1.6-.6q-.8-.3-1.7-.6-3.4-1.3-6.7-2.5l-.4-.2-.9-.3q-1.8-.7-3.5-1.4l-.6-.3h-.1q-1.3-.5-2.5-1-.8-.4-1.5-.7l-.4-.2-1.6-.6-.2-.1-1.4-.6-1-.5-.3-.1q-1-.4-1.9-.8l-.8-.4-.9-.4q-1-.5-2.1-1l-.4-.2-.9-.4-1.2-.6-.6-.2-1-.5-.2-.1-.5-.3-1.2-.6h-.2l-.4-.3-.5-.2-1-.5-.4-.2-.5-.3q-.9-.4-1.7-.8l-.3-.2q-2.3-1.2-4.5-2.4l-.3-.2h-.1q-.8-.5-1.6-.9l-.4-.2q-.9-.5-1.8-1.1l-.2-.1-.3-.1-1.4-.8-.7-.4-.6-.4-.4-.2q-1.1-.6-2.1-1.3l-.3-.1-2.2-1.4-.8-.5-.4-.3-.5-.2-1-.6-.5-.4-1.3-.8-.6-.4-.7-.4q-.9-.6-1.7-1.2l-1.2-.8-.7-.4-1.1-.7-.7-.5-1.2-.9-.7-.5-1.3-.8-.7-.5q-.9-.7-1.9-1.3-1-.8-2-1.5l-.7-.5-.7-.5-1.2-.9q-1-.7-2-1.5l-.5-.4-.9-.6-1.3-1-1-.7q-2.9-2.2-5.7-4.5l-.9-.7q-.6-.5-1.3-1l-1.1-.9-1.2-1q-1.7-1.3-3.4-2.7l-1.1-.9q-2.8-2.4-5.7-4.7-1.1-1-2.3-2-1.7-1.4-3.4-2.9-1.8-1.5-3.5-3l-1.2-1c-2-1.7-4.1-3.5-6.1-5.3q-1.9-1.6-3.8-3.3-3.3-2.9-6.6-5.9l-.1-.1q-1.6-1.5-3.2-2.9l-.1-.1q-1.6-1.4-3.2-2.9l-.2-.2q-1.6-1.4-3.2-2.9v-.1q-1.6-1.4-3.1-2.8l-.4-.4q-1.5-1.4-2.9-2.8l-.5-.4-2.6-2.4q-.7-.7-1.5-1.4l-1.2-1.1c-22.6-21.3-45.6-43.3-70-62.7-24.4-6.9-50-7.9-76.2-1.2-47.8 12.2-84.8 44.5-125.6 70.3-40.8 25.9-87.3 43.5-135.6 47.7-48.6 4.1-100.3-2.9-146.7-17.8-48.1-15.4-89.5-45.7-137.7-60.8-45.1-14.3-91.3-11.2-134.4 8.4-39.9 18.2-75.1 48.1-94.6 87.8-8.6 17.3-14.6 36.4-16.5 55.7h1173.3c-11.7-2.2-22.5-4.6-32.6-7z" style="fill:#72a340"/><path d="M972.1 1195.9c-47.3 16.6-96.5 16-145.4 8.3-25.1-3.9-50-9.6-75.1-13.6-24.7-3.9-49.7-5.1-74.6-4.5-101.6 2.3-199.9 33.2-301.2 38.5-60 3.1-119.9 7.9-179.8 12.3h1041.8c-11.7-2.2-22.5-4.6-32.6-7q-1.1-.2-2.1-.5-1.2-.3-2.3-.6-1.1-.2-2.2-.5l-3.2-.8q-.7-.2-1.5-.4l-1-.3q-.9-.2-1.7-.4-.9-.2-1.8-.5-.7-.2-1.5-.4l-.9-.2-.8-.3h-.1q-.8-.2-1.5-.4-.8-.2-1.6-.5l-.9-.2q-1.1-.3-2.3-.6-.8-.3-1.6-.5-1-.3-2.1-.6-3-.9-6-1.9l-1.4-.4q-1.2-.4-2.3-.8-1.3-.4-2.5-.8l-3.6-1.2q-.8-.3-1.6-.5-1.1-.4-2.1-.7l-1.6-.6q-.8-.3-1.7-.6-3.4-1.3-6.7-2.5l-.4-.2-.9-.3q-1.8-.7-3.5-1.4l-.6-.3h-.1q-1.3-.5-2.5-1-.8-.4-1.5-.7l-.4-.2-1.6-.6-.2-.1-1.4-.6-1-.5-.3-.1q-1-.4-1.9-.8l-.8-.4-.9-.4q-1-.5-2.1-1l-.4-.2-.9-.4-1.2-.6-.6-.2-1-.5-.2-.1-.5-.3-1.2-.6h-.2l-.4-.3-.5-.2-1-.5-.4-.2-.5-.3q-.9-.4-1.7-.8l-.3-.2q-2.3-1.2-4.5-2.4l-.3-.2h-.1q-.8-.5-1.6-.9l-.4-.2q-.9-.5-1.8-1.1l-.2-.1-.3-.1-1.4-.8-.7-.4-.6-.4-.4-.2q-1.1-.6-2.1-1.3l-.3-.1-2.2-1.4-.8-.5-.4-.3-.5-.2-1-.6-.5-.4-1.3-.8-.6-.4-.7-.4q-.9-.6-1.7-1.2l-1.2-.8-.7-.4-1.1-.7-.7-.5-1.2-.9-.7-.5-1.3-.8-.7-.5q-.9-.7-1.9-1.3-1-.8-2-1.5l-.7-.5-.7-.5-1.2-.9q-1-.7-2-1.5l-.5-.4-.9-.6-1.3-1-1-.7q-2.9-2.2-5.7-4.5l-.9-.7q-.6-.5-1.3-1l-1.1-.9-1.2-1q-1.7-1.3-3.4-2.7l-1.1-.9q-2.8-2.4-5.7-4.7-1.1-1-2.3-2-1.7-1.4-3.4-2.9-1.8-1.5-3.5-3l-1.2-1c-2-1.7-4.1-3.5-6.1-5.3-7.6 29.2-33.8 46.6-62.3 56.7z" style="fill:#5f903e"/><path d="M426.5 733.3q-1.8-1.8-3.6-3.5 1 2.3 2 4.7l1.6-1.2z" class="s4"/><path d="M282.5 485.2c49.4 31.8 88.5 78.6 110.1 131.9.6 1.4 2 2.3 3.5 2.3q.7 0 1.4-.2c1.9-.8 2.8-3 2-4.9-22.2-54.7-62.3-102.8-112.9-135.4-1.7-1.1-4.1-.6-5.2 1.1-1.1 1.8-.6 4.1 1.1 5.2zM28.2 525.7c-.3-2-2.2-3.4-4.3-3.1-2 .4-3.4 2.3-3 4.3 6.9 42.6 24.8 91.4 47.8 130.5.7 1.2 1.9 1.9 3.2 1.9.6 0 1.3-.2 1.9-.6 1.8-1 2.4-3.3 1.3-5.1-22.2-37.8-40.2-86.8-46.9-127.9z" class="s10"/><path d="M1063.8 685.8c14.2-2.3 28.2-5.9 41.8-10.5-13.1 4.1-27.1 7.7-41.8 10.5zM704.8 687.1q-1.2.4-2.4.7l.5.9q.9-.8 1.9-1.6z" class="s4"/><path d="M781.5 602.6c.8 0 1.7-.3 2.3-.9 44.3-36.6 101-59.3 159.5-64 2-.2 3.6-2 3.4-4-.2-2.1-2-3.6-4-3.5-60.1 4.8-118.2 28.2-163.6 65.8-1.6 1.3-1.8 3.7-.5 5.2.7.9 1.8 1.4 2.9 1.4zM1161.4 687.3c-1.7-1.3-4-1-5.3.6-40.5 52.1-118.8 110.5-174.7 114.1-2.1.1-3.7 1.9-3.5 3.9.1 2 1.7 3.6 3.7 3.6l.2-.1c58.8-3.7 137.8-62.4 180.2-116.9 1.3-1.6 1-4-.6-5.2zM553.6 234.7c-1.9-.9-4.1-.1-5 1.8-23.6 50.8-31.3 108.8-21.6 163.1.3 1.8 1.9 3.1 3.7 3.1l.6-.1c2.1-.3 3.4-2.3 3.1-4.3-9.5-52.8-2-109.2 21-158.7.9-1.8.1-4.1-1.8-4.9zM818.4 331.6c-.8 1.8 0 4.1 1.9 4.9q.8.4 1.5.3c1.5 0 2.8-.8 3.4-2.2 24.2-53.2 8.5-153.6-20.6-219.9-.9-1.9-3.1-2.7-5-1.9-1.9.8-2.7 3-1.9 4.9 27.8 63.4 43.7 163.2 20.7 213.9z" class="s10"/><path d="M342 715.5c-44.9-7.2-88-25-125.2-51.1-34.7-24.5-69.7-68.4-115.6-69.7-15-.4-29.6 6.1-27.7 23.3.7 6.9 3.9 13.2 7.3 19.2 41.1 70.6 118.1 111.5 197.8 123.7 30 4.5 61.7 4.3 89.4-8 5.8-2.6 11.9-7.4 13.6-13 5.6-18.5-28.5-22.6-39.6-24.4zM726.1 343.8c-15 36.8-38.5 70.3-68.1 96.8-7.4 6.6-30.6 25.7-17.8 36.7 3.9 3.4 10.7 4 16.2 3.1 26.3-3.9 49.8-18.8 69.8-36.3 53-46.6 90.5-113.1 87.4-184.6-.2-6.1-.9-12.2-3.6-17.7-6.7-13.5-20.6-11.4-31.4-4-33.3 22.6-38.3 71.5-52.5 106zM1048.6 757.6c9.6-11.7 2-23.5-9.2-30.3-34.2-21.2-80.9-5.7-118.2-4.4-39.8 1.3-79.9-6.4-116.3-22.6-8.9-4-35.9-17.3-40.7-1.1-1.4 4.9.8 11.3 3.8 16 14.4 22.4 37.5 37.7 61.7 48.8 64.2 29.3 140.3 36.2 204.3 4.2 5.4-2.8 10.8-5.9 14.6-10.6z" class="s11"/></g></svg>